<mxfile host="Electron" modified="2024-02-19T18:35:54.980Z" agent="Mozilla/5.0 (Windows NT 10.0; Win64; x64) AppleWebKit/537.36 (KHTML, like Gecko) draw.io/21.8.2 Chrome/114.0.5735.289 Electron/25.8.1 Safari/537.36" etag="mrpyr1qWTxqmnGMX0NMB" version="21.8.2" type="device">
  <diagram name="PÃ¡gina-1" id="pz33P6Z-Ww-W9QKPwk7U">
    <mxGraphModel dx="1925" dy="828" grid="1" gridSize="10" guides="1" tooltips="1" connect="1" arrows="1" fold="1" page="1" pageScale="1" pageWidth="827" pageHeight="1169" math="0" shadow="0">
      <root>
        <mxCell id="0" />
        <mxCell id="1" parent="0" />
        <mxCell id="ogc3ekluhLjM7F2IktL8-1" value="" style="ellipse;whiteSpace=wrap;html=1;aspect=fixed;" vertex="1" parent="1">
          <mxGeometry x="370" y="390" width="80" height="80" as="geometry" />
        </mxCell>
        <mxCell id="ogc3ekluhLjM7F2IktL8-18" style="edgeStyle=orthogonalEdgeStyle;rounded=0;orthogonalLoop=1;jettySize=auto;html=1;" edge="1" parent="1" source="ogc3ekluhLjM7F2IktL8-2" target="ogc3ekluhLjM7F2IktL8-7">
          <mxGeometry relative="1" as="geometry" />
        </mxCell>
        <mxCell id="ogc3ekluhLjM7F2IktL8-19" style="edgeStyle=orthogonalEdgeStyle;rounded=0;orthogonalLoop=1;jettySize=auto;html=1;" edge="1" parent="1" source="ogc3ekluhLjM7F2IktL8-2" target="ogc3ekluhLjM7F2IktL8-8">
          <mxGeometry relative="1" as="geometry" />
        </mxCell>
        <mxCell id="ogc3ekluhLjM7F2IktL8-2" value="" style="ellipse;whiteSpace=wrap;html=1;aspect=fixed;" vertex="1" parent="1">
          <mxGeometry x="370" y="390" width="80" height="80" as="geometry" />
        </mxCell>
        <mxCell id="ogc3ekluhLjM7F2IktL8-10" style="edgeStyle=orthogonalEdgeStyle;rounded=0;orthogonalLoop=1;jettySize=auto;html=1;" edge="1" parent="1" source="ogc3ekluhLjM7F2IktL8-3" target="ogc3ekluhLjM7F2IktL8-9">
          <mxGeometry relative="1" as="geometry" />
        </mxCell>
        <mxCell id="ogc3ekluhLjM7F2IktL8-3" value="" style="ellipse;whiteSpace=wrap;html=1;aspect=fixed;" vertex="1" parent="1">
          <mxGeometry x="-30" y="720" width="80" height="80" as="geometry" />
        </mxCell>
        <mxCell id="ogc3ekluhLjM7F2IktL8-11" style="edgeStyle=orthogonalEdgeStyle;rounded=0;orthogonalLoop=1;jettySize=auto;html=1;" edge="1" parent="1" source="ogc3ekluhLjM7F2IktL8-4" target="ogc3ekluhLjM7F2IktL8-9">
          <mxGeometry relative="1" as="geometry" />
        </mxCell>
        <mxCell id="ogc3ekluhLjM7F2IktL8-4" value="" style="ellipse;whiteSpace=wrap;html=1;aspect=fixed;" vertex="1" parent="1">
          <mxGeometry x="290" y="720" width="80" height="80" as="geometry" />
        </mxCell>
        <mxCell id="ogc3ekluhLjM7F2IktL8-13" style="edgeStyle=orthogonalEdgeStyle;rounded=0;orthogonalLoop=1;jettySize=auto;html=1;" edge="1" parent="1" source="ogc3ekluhLjM7F2IktL8-5" target="ogc3ekluhLjM7F2IktL8-9">
          <mxGeometry relative="1" as="geometry" />
        </mxCell>
        <mxCell id="ogc3ekluhLjM7F2IktL8-5" value="" style="ellipse;whiteSpace=wrap;html=1;aspect=fixed;" vertex="1" parent="1">
          <mxGeometry x="760" y="720" width="80" height="80" as="geometry" />
        </mxCell>
        <mxCell id="ogc3ekluhLjM7F2IktL8-12" style="edgeStyle=orthogonalEdgeStyle;rounded=0;orthogonalLoop=1;jettySize=auto;html=1;exitX=0.5;exitY=1;exitDx=0;exitDy=0;" edge="1" parent="1" source="ogc3ekluhLjM7F2IktL8-6" target="ogc3ekluhLjM7F2IktL8-9">
          <mxGeometry relative="1" as="geometry" />
        </mxCell>
        <mxCell id="ogc3ekluhLjM7F2IktL8-6" value="" style="ellipse;whiteSpace=wrap;html=1;aspect=fixed;" vertex="1" parent="1">
          <mxGeometry x="440" y="720" width="80" height="80" as="geometry" />
        </mxCell>
        <mxCell id="ogc3ekluhLjM7F2IktL8-14" style="edgeStyle=orthogonalEdgeStyle;rounded=0;orthogonalLoop=1;jettySize=auto;html=1;" edge="1" parent="1" source="ogc3ekluhLjM7F2IktL8-7" target="ogc3ekluhLjM7F2IktL8-5">
          <mxGeometry relative="1" as="geometry" />
        </mxCell>
        <mxCell id="ogc3ekluhLjM7F2IktL8-15" style="edgeStyle=orthogonalEdgeStyle;rounded=0;orthogonalLoop=1;jettySize=auto;html=1;entryX=0.5;entryY=0;entryDx=0;entryDy=0;" edge="1" parent="1" source="ogc3ekluhLjM7F2IktL8-7" target="ogc3ekluhLjM7F2IktL8-6">
          <mxGeometry relative="1" as="geometry" />
        </mxCell>
        <mxCell id="ogc3ekluhLjM7F2IktL8-7" value="" style="ellipse;whiteSpace=wrap;html=1;aspect=fixed;" vertex="1" parent="1">
          <mxGeometry x="600" y="560" width="80" height="80" as="geometry" />
        </mxCell>
        <mxCell id="ogc3ekluhLjM7F2IktL8-16" style="edgeStyle=orthogonalEdgeStyle;rounded=0;orthogonalLoop=1;jettySize=auto;html=1;" edge="1" parent="1" source="ogc3ekluhLjM7F2IktL8-8" target="ogc3ekluhLjM7F2IktL8-4">
          <mxGeometry relative="1" as="geometry" />
        </mxCell>
        <mxCell id="ogc3ekluhLjM7F2IktL8-17" style="edgeStyle=orthogonalEdgeStyle;rounded=0;orthogonalLoop=1;jettySize=auto;html=1;" edge="1" parent="1" source="ogc3ekluhLjM7F2IktL8-8" target="ogc3ekluhLjM7F2IktL8-3">
          <mxGeometry relative="1" as="geometry" />
        </mxCell>
        <mxCell id="ogc3ekluhLjM7F2IktL8-8" value="" style="ellipse;whiteSpace=wrap;html=1;aspect=fixed;" vertex="1" parent="1">
          <mxGeometry x="120" y="560" width="80" height="80" as="geometry" />
        </mxCell>
        <mxCell id="ogc3ekluhLjM7F2IktL8-9" value="" style="ellipse;whiteSpace=wrap;html=1;aspect=fixed;" vertex="1" parent="1">
          <mxGeometry x="370" y="1050" width="80" height="80" as="geometry" />
        </mxCell>
      </root>
    </mxGraphModel>
  </diagram>
</mxfile>
